<svg xmlns="http://www.w3.org/2000/svg" width="249.437" height="256.161" viewBox="0 0 249.437 256.161">
  <g id="pain" transform="translate(0 0)">
    <path id="Path_81" data-name="Path 81" d="M91.174,256.156a11.487,11.487,0,0,1-7.8-12.685,10,10,0,0,0-11.2-11.323,59.773,59.773,0,0,1-18.588-1.7,38.77,38.77,0,0,1-26.959-34.975c-.47-7.226-1.2-14.429-1.815-21.749a27.173,27.173,0,0,1-16.848-7.71,25.646,25.646,0,0,1-4.576-31.269c5.823-9.982,12.388-19.529,18.952-29.072a17.186,17.186,0,0,0,3.284-9.321A102,102,0,0,1,36.807,54.165,95.986,95.986,0,0,1,88.564,8.6,125.5,125.5,0,0,1,136.487.016a105.636,105.636,0,0,1,34.216,6.5,10,10,0,1,1-6.462,18.895,98.534,98.534,0,0,0-72.214,3.733C66.172,40.335,51.37,60.659,46.656,88.3a129.067,129.067,0,0,0-1.4,15.663,15.308,15.308,0,0,1-2.925,8.3c-7.1,10.284-14.03,20.661-20.981,31.034a6.582,6.582,0,0,0,5.118,10.422A18.389,18.389,0,0,1,44.8,172.3c.257,7.736,1.19,15.455,1.931,23.169A18.313,18.313,0,0,0,64.77,212.175a92.179,92.179,0,0,1,15.659,1.012,29.174,29.174,0,0,1,22.863,27.243c.049,1,0,2,.107,3a11.176,11.176,0,0,1-7.714,12.712Z" transform="translate(-0.01 0.005)" fill="#617c7e"/>
    <path id="Path_82" data-name="Path 82" d="M52.639,166.39a11.54,11.54,0,0,1-7.989-12.552q.275-28.85.031-57.745A79.418,79.418,0,0,1,58.169,50.377,203.68,203.68,0,0,0,68.444,31.865a10.133,10.133,0,0,1,12.166-5.3,9.489,9.489,0,0,1,6.525,11.62,68.717,68.717,0,0,1-5.282,12.073A126.561,126.561,0,0,1,74.569,61.9a57.163,57.163,0,0,0-9.916,33.688c.151,19.25-.124,38.5.133,57.745a12.059,12.059,0,0,1-7.643,13.049Z" transform="translate(153.127 89.77)" fill="#617c7e"/>
    <path id="Path_83" data-name="Path 83" d="M82.349,63.09c-6.986,0-13.972.022-20.958,0A18.615,18.615,0,0,1,42.154,46.144a17.066,17.066,0,0,1,5.055-14.611Q61.777,17.1,76.614,2.949a9.8,9.8,0,0,1,14.128.315A9.911,9.911,0,0,1,90.3,17.409C82.278,25.3,74.173,33.1,66.082,40.933a16.055,16.055,0,0,1-2.015,1.438l.4.644c.692.044,1.389.124,2.082.124,6.587,0,13.173-.027,19.756,0a18.233,18.233,0,0,1,17.177,11.54A17.581,17.581,0,0,1,99.6,74.768c-9.148,9.232-18.566,18.2-27.962,27.2A9.973,9.973,0,1,1,57.8,87.626c7.616-7.47,15.3-14.864,22.974-22.281.59-.568,1.287-1.025,1.935-1.54-.124-.235-.244-.475-.364-.71" transform="translate(144.354 0.343)" fill="#617c7e"/>
    <path id="Path_84" data-name="Path 84" d="M54.252,42.986h9.414A16.449,16.449,0,0,1,75.255,71.947q-10.031,9.765-20.12,19.485a9.623,9.623,0,0,1-10.621,2.25,9.392,9.392,0,0,1-6.365-8.233A10.231,10.231,0,0,1,41.4,76.9c4.412-4.652,8.7-9.423,13.04-14.145l.737.4c-.679-.067-1.358-.173-2.037-.186-3.249-.075-6.52.115-9.738-.231A15.535,15.535,0,0,1,29.792,52.125,15.246,15.246,0,0,1,32.9,35.147c7.545-7.656,15.4-15,23.32-22.272a9.654,9.654,0,0,1,13.715.914,9.862,9.862,0,0,1-.382,13.759C65.113,31.956,60.533,36.2,56,40.5c-.661.626-1.394,1.176-2.091,1.775.107.24.217.475.324.715" transform="translate(97.826 35.929)" fill="#617c7e"/>
  </g>
</svg>
