<svg xmlns="http://www.w3.org/2000/svg" width="224.855" height="224.881" viewBox="0 0 224.855 224.881">
  <path id="adl" d="M80.168,334.823V321.645c.186-1.585.377-3.169.555-4.754a112.8,112.8,0,0,1,92.525-99.351c4.23-.75,8.517-1.172,12.778-1.749H199.2c.71.133,1.42.293,2.135.4,4.918.71,9.9,1.11,14.74,2.162a112.573,112.573,0,0,1,88.357,121.264,108.237,108.237,0,0,1-27.812,63.173A110.074,110.074,0,0,1,197.2,440.512a107,107,0,0,1-62.019-15.757,110.793,110.793,0,0,1-53.262-77.172c-.794-4.221-1.181-8.522-1.775-12.783m40.51,50.426L249.532,256.351A91.73,91.73,0,0,0,120.656,385.227M264.583,271.335l-128.849,128.9A91.748,91.748,0,0,0,264.609,271.357" transform="translate(-80.146 -215.792)" fill="#617c7e"/>
</svg>
