<svg xmlns="http://www.w3.org/2000/svg" width="128.268" height="128.29" viewBox="0 0 128.268 128.29">
  <g id="Group_94" data-name="Group 94" transform="translate(-957.014 -679.999)">
    <path id="Path_74" data-name="Path 74" d="M44,70.629a7.276,7.276,0,0,1-3.163-3.347c-2.663-4.769-5.416-9.5-8.088-14.249a1.9,1.9,0,0,0-1.94-1.159c-3.546.07-7.1.037-10.642.021a4.033,4.033,0,1,1,.018-8.018c4.6-.015,9.18,0,13.771,0a4.432,4.432,0,0,1,4.181,2.452c2.118,3.779,4.291,7.531,6.55,11.5.306-.613.561-1.079.775-1.532q5.915-12.827,11.828-25.66a3.785,3.785,0,0,1,5.256-2.363,5.918,5.918,0,0,1,2.412,2.36Q71.973,43.266,78.8,55.994a2.21,2.21,0,0,0,2.32,1.346c3.255-.077,6.516.077,9.765-.058a4.6,4.6,0,0,1,4.968,3.08v2a5.155,5.155,0,0,1-5.477,2.976c-4.125-.126-8.257-.077-12.385-.018a4.806,4.806,0,0,1-4.735-2.783c-3.656-6.832-7.4-13.615-11.123-20.416-.208-.383-.435-.754-.714-1.226-.242.481-.42.812-.576,1.149-3.871,8.395-7.76,16.784-11.592,25.2A5.765,5.765,0,0,1,46,70.648Z" transform="translate(989.43 737.641)" fill="#617c7e"/>
    <path id="Path_75" data-name="Path 75" d="M8.039,61.027H34.385a4.024,4.024,0,1,1,.04,8.018H4.373A4.037,4.037,0,0,1,.018,64.662c0-6.179-.04-12.358,0-18.537A25.329,25.329,0,0,1,25.151,20.968q22.987-.113,45.974,0a24.474,24.474,0,0,1,17.639,7.426,4.027,4.027,0,1,1-5.646,5.692A17.225,17.225,0,0,0,70.6,28.971H25.647A17.332,17.332,0,0,0,8.042,46.622q0,6.515,0,13.026v1.379" transform="translate(957.015 723.183)" fill="#617c7e"/>
    <path id="Path_76" data-name="Path 76" d="M33.632,53.421A26.711,26.711,0,1,1,60.411,26.826,26.711,26.711,0,0,1,33.632,53.421m.086-8.027A18.7,18.7,0,1,0,14.97,26.731,18.7,18.7,0,0,0,33.718,45.394" transform="translate(971.446 680)" fill="#617c7e"/>
    <rect id="Rectangle_72" data-name="Rectangle 72" width="128.268" height="128.268" transform="translate(957.014 680.002)" fill="none"/>
  </g>
</svg>
