<svg xmlns="http://www.w3.org/2000/svg" width="226.943" height="217.527" viewBox="0 0 226.943 217.527">
  <g id="revenue" transform="translate(0 0)">
    <path id="Path_61" data-name="Path 61" d="M191.009,254.7a32.485,32.485,0,0,1,4.026-3.615q50.479-32.215,101.025-64.333a5.173,5.173,0,0,1,7.985.881q15.825,15.82,31.644,31.649c.571.576,1.065,1.229,1.452,1.684l63.966-63.956c-.532-.039-1.152-.126-1.766-.126H377.181c-.663,0-1.331,0-1.994-.034a4.68,4.68,0,0,1,0-9.354c.968-.073,1.936,0,2.9,0H412.45c3.871,0,5.5,1.641,5.5,5.526q0,17.951-.029,35.893a8.362,8.362,0,0,1-.784,3.591,4.356,4.356,0,0,1-5.13,2.037,4.442,4.442,0,0,1-3.436-4.578c-.053-7.743-.029-15.486-.034-23.267v-2.971c-.968.915-1.6,1.452-2.187,2.052q-32.045,32.031-64.087,64.077c-3.673,3.668-5.657,3.683-9.282.058q-15.97-15.97-31.939-31.968c-.571-.571-1.031-1.258-1.645-2.013-.939.576-1.611.968-2.274,1.4l-97.5,62.044c-.8.484-1.573,1.04-2.362,1.558h-6.2Z" transform="translate(-191.009 -43.402)" fill="#617c7e"/>
    <path id="Path_62" data-name="Path 62" d="M192.963,207.95a81.077,81.077,0,0,1,68.684-81.106,80.037,80.037,0,0,1,90.7,65.621c5.323,32.849-6.19,59.383-32.544,79.529a8.061,8.061,0,0,1-4.394,1.641,4.118,4.118,0,0,1-4.06-3.475,4.646,4.646,0,0,1,1.936-5.052c2.763-2.207,5.686-4.259,8.227-6.7a70.9,70.9,0,1,0-76.659,12.863c.6.266,1.22.523,1.82.8a4.733,4.733,0,1,1-3.654,8.711,78.031,78.031,0,0,1-24.2-15.311,78.933,78.933,0,0,1-25.871-57.481" transform="translate(-183.546 -125.956)" fill="#617c7e"/>
    <path id="Icon_awesome-rupee-sign" data-name="Icon awesome-rupee-sign" d="M56.557,14a2.2,2.2,0,0,0,2.2-2.2V4.452a2.2,2.2,0,0,0-2.2-2.2H2.2A2.2,2.2,0,0,0,0,4.452v8.2a2.2,2.2,0,0,0,2.2,2.2h15.66a13.245,13.245,0,0,1,11.174,5.023H2.2a2.2,2.2,0,0,0-2.2,2.2v7.346a2.2,2.2,0,0,0,2.2,2.2H31.354A12.689,12.689,0,0,1,17.625,42.4H2.2a2.2,2.2,0,0,0-2.2,2.2V54.33a2.2,2.2,0,0,0,.712,1.621L31.02,83.927a2.2,2.2,0,0,0,1.5.586H47.672a2.2,2.2,0,0,0,1.5-3.823l-27.7-25.571a25.164,25.164,0,0,0,25.4-23.49h9.679a2.2,2.2,0,0,0,2.2-2.2V22.081a2.2,2.2,0,0,0-2.2-2.2H45.78A25.164,25.164,0,0,0,43.162,14Z" transform="translate(60.37 41.306)" fill="#617c7e"/>
  </g>
</svg>
