<svg xmlns="http://www.w3.org/2000/svg" width="224.452" height="206.675" viewBox="0 0 224.452 206.675">
  <g id="Total_Residents" data-name="Total Residents" transform="translate(0 0)">
    <path id="Path_49" data-name="Path 49" d="M226.876,143.149c.842-.677,1.728-1.311,2.516-2.042Q283.4,91.064,337.4,41c.527-.484,1.079-.939,1.757-1.524,1.505,1.384,2.952,2.705,4.389,4.031q53.193,49.336,106.348,98.673a4.516,4.516,0,0,1,1.369,2.9q.1,49.525.053,99.065c0,.508-.039,1.016-.073,1.7H445.4v-2.9q0-47.231.039-94.463a5.115,5.115,0,0,0-1.786-4.162Q391.944,96.469,340.3,48.551c-.363-.339-.75-.648-1.234-1.06-3.765,3.484-7.457,6.9-11.13,10.317q-46.689,43.278-93.4,86.531a5.087,5.087,0,0,0-1.781,4.162q.082,47.236.039,94.463v2.9l-5.914.285Z" transform="translate(-226.876 -39.477)" fill="#617c7e"/>
    <path id="Path_50" data-name="Path 50" d="M282.648,108.065q-.716,11.038-1.452,22.057c-.416,6.335-.794,12.679-1.282,19.009a6.1,6.1,0,0,1-8.764,5.2,3.257,3.257,0,0,0-2.294-.034,6,6,0,0,1-8.749-4.873c-.716-8.145-1.147-16.313-1.684-24.472q-.557-8.4-1.1-16.8c-4.984.571-6.122-.484-6.422-5.454a95.9,95.9,0,0,1,1.452-27.24,53.7,53.7,0,0,1,3.789-9.94,4.985,4.985,0,0,1,5.062-2.773c5.691.077,11.392.131,17.083,0a6.165,6.165,0,0,1,6.039,3.47,34.843,34.843,0,0,1,4.264,15.263c.431,7.128.436,14.286.45,21.433,0,4.684-1.684,5.977-6.393,5.168" transform="translate(-136.105 49.725)" fill="#617c7e"/>
    <path id="Path_51" data-name="Path 51" d="M281.129,118.174l-10.917,2.105c-.363,3.7-.755,7.535-1.108,11.382q-.726,8.181-1.452,16.366a6.654,6.654,0,0,1-10.366,5.12,5.618,5.618,0,0,1-2.546-4.839q-.968-10.366-1.9-20.727c-.227-2.468-.484-4.931-.687-7.307l-10.917-2.144c.629-2.066.968-3.629,1.578-5.1A34.727,34.727,0,0,0,244.97,98.9c-.252-9.349-.155-18.7-.31-28.068a4.582,4.582,0,0,1,2.9-4.839,32.52,32.52,0,0,1,26.96-.135,4.839,4.839,0,0,1,3.194,5.115c-.179,11.029-.363,22.067-.2,33.1a39.631,39.631,0,0,0,2.042,8.861c.392,1.544.919,3.054,1.582,5.222" transform="translate(-171.732 50.828)" fill="#617c7e"/>
    <path id="Path_54" data-name="Path 54" d="M263.29,57.546a11.13,11.13,0,1,1-11.048,11.217A11.13,11.13,0,0,1,263.29,57.546" transform="translate(-129.489 29.895)" fill="#617c7e"/>
    <path id="Path_55" data-name="Path 55" d="M264.325,68.829a10.574,10.574,0,1,1-10.438-10.7,10.574,10.574,0,0,1,10.438,10.7" transform="translate(-164.287 32.113)" fill="#617c7e"/>
    <path id="Path_50-2" data-name="Path 50" d="M279.186,103.178q-.639,9.849-1.3,19.681c-.371,5.652-.708,11.313-1.144,16.961a5.44,5.44,0,0,1-7.82,4.642,2.906,2.906,0,0,0-2.047-.03,5.354,5.354,0,0,1-7.807-4.348c-.639-7.267-1.023-14.556-1.5-21.836q-.5-7.492-.98-14.992c-4.447.509-5.462-.432-5.73-4.866a85.564,85.564,0,0,1,1.3-24.305,47.915,47.915,0,0,1,3.381-8.869,4.448,4.448,0,0,1,4.517-2.474c5.078.069,10.164.117,15.242,0a5.5,5.5,0,0,1,5.389,3.1,31.089,31.089,0,0,1,3.8,13.619c.384,6.36.389,12.746.4,19.124,0,4.18-1.5,5.333-5.7,4.612" transform="translate(-89.054 59.665)" fill="#617c7e"/>
    <path id="Path_54-2" data-name="Path 54" d="M262.1,57.546a9.931,9.931,0,1,1-9.858,10.009A9.931,9.931,0,0,1,262.1,57.546" transform="translate(-83.337 42.528)" fill="#617c7e"/>
    <path id="Path_51-2" data-name="Path 51" d="M278.028,113.884l-10.068,1.941c-.335,3.41-.7,6.949-1.022,10.5q-.669,7.545-1.339,15.094a6.137,6.137,0,0,1-9.56,4.722,5.182,5.182,0,0,1-2.348-4.463q-.893-9.56-1.749-19.115c-.21-2.276-.446-4.548-.634-6.739l-10.068-1.977c.58-1.906.893-3.347,1.455-4.7a32.027,32.027,0,0,0,1.986-13.032c-.232-8.623-.143-17.249-.286-25.885a4.226,4.226,0,0,1,2.678-4.463,29.991,29.991,0,0,1,24.864-.125,4.463,4.463,0,0,1,2.946,4.717c-.165,10.171-.335,20.351-.183,30.522a36.549,36.549,0,0,0,1.883,8.172c.362,1.424.848,2.816,1.459,4.816" transform="translate(-216.181 56.46)" fill="#617c7e"/>
    <path id="Path_55-2" data-name="Path 55" d="M262.681,68a9.752,9.752,0,1,1-9.627-9.872A9.752,9.752,0,0,1,262.681,68" transform="translate(-209.466 39.579)" fill="#617c7e"/>
  </g>
</svg>
