<svg xmlns="http://www.w3.org/2000/svg" width="378.256" height="378.256" viewBox="0 0 378.256 378.256">
  <g id="bad_mood" data-name="bad mood" transform="translate(0 0)">
    <path id="Path_77" data-name="Path 77" d="M294.717,103.328c104.423-.235,189.276,84.2,189.552,188.627s-84.128,189.309-188.55,189.628-189.343-84.052-189.7-188.474c-.295-104.514,84.188-189.479,188.7-189.78m.586,360.44a171.25,171.25,0,1,0-171.4-169.55c.794,93.568,78.41,170.358,171.4,169.55" transform="translate(-106.015 -103.328)" fill="#617c7e"/>
    <path id="Path_78" data-name="Path 78" d="M308.8,212.724a9.245,9.245,0,0,1-6.445,9.449,10.271,10.271,0,0,1-11.314-4.572c-1.584-2.969-2.663-6.214-4.323-9.134a78.974,78.974,0,0,0-131.774-8.917,135.81,135.81,0,0,0-9.481,17.31,9,9,0,0,1-9.649,5.242,8.38,8.38,0,0,1-7.408-7.545,11.26,11.26,0,0,1,.941-5.69c15.215-34.212,41.349-54.056,78.628-58.1a93.834,93.834,0,0,1,79.928,27.962,91.092,91.092,0,0,1,19.636,29.738,31.981,31.981,0,0,1,1.261,4.265" transform="translate(-29.186 57.012)" fill="#617c7e"/>
    <path id="Path_79" data-name="Path 79" d="M175.318,165.573a17.918,17.918,0,1,1,17.8-18.118,17.918,17.918,0,0,1-17.8,18.118" transform="translate(70.264 -12.521)" fill="#617c7e"/>
    <path id="Path_80" data-name="Path 80" d="M149.928,129.737A17.923,17.923,0,1,1,131.877,147.6a17.923,17.923,0,0,1,18.051-17.865" transform="translate(-17.088 -12.521)" fill="#617c7e"/>
  </g>
</svg>
