<svg xmlns="http://www.w3.org/2000/svg" width="446.913" height="302.405" viewBox="0 0 446.913 302.405">
  <g id="Group_97" data-name="Group 97" transform="translate(0.517 0.5)">
    <path id="Subtraction_2" data-name="Subtraction 2" d="M224.542,301.405c-26.693,0-54.164,0-83.987-.1A50.478,50.478,0,0,1,96.782,276.3c-9.914-15.126-19.908-30.315-29.584-45-15.38-23.372-31.284-47.538-46.855-71.4a15.158,15.158,0,0,0-4.274-4.592L9.4,144.681a97.364,97.364,0,0,1-6.2-12.806l-.1-.477c-.191-.922-.334-1.589-.508-2.367a57.2,57.2,0,0,1,8.278-50.637,233.878,233.878,0,0,1,74.47-47.666c4.29-1.922,8.723-3.781,13.187-5.561h.111c6.88-2.606,13.982-5.307,21.068-7.674l5.656-1.97,3.829-1.223c.588-.175,1.112-.35,1.589-.524,12.981-3.893,23.579-6.355,30.188-7.722a41.31,41.31,0,0,0,5.021-.747A328.271,328.271,0,0,1,224.558,0,315.658,315.658,0,0,1,326.88,17.255a398.9,398.9,0,0,1,94.87,48.412,54.641,54.641,0,0,1,22.975,34.589,56.817,56.817,0,0,1-7.611,41.151c-11.456,18.478-23.722,36.877-35.574,54.672-3.988,5.99-8.119,12.186-12.171,18.3-.922,1.382-4.179,5.688-8.516,11.249-8.1,13.378-14.856,24.214-16.174,26.28l-1.128,1.764c-5.609,8.739-11.424,17.779-17.477,26.359a47.92,47.92,0,0,1-40.833,21.259C279.6,301.373,252.442,301.405,224.542,301.405Zm-1-280.321c-3.511,0-7.07,0-10.6.191A324.317,324.317,0,0,0,35.564,83.081a35.686,35.686,0,0,0-7.627,50.208c10.518,16.159,21.322,32.524,31.777,48.349l.191.3L71.233,199.1q6.355,9.74,12.87,19.448h0c9.914,14.967,20.131,30.395,29.982,45.711a33.986,33.986,0,0,0,29.9,16.238c1.684,0,3.686.143,5.625.143,11.964,0,19.877-2.812,22.371-16.794a18.875,18.875,0,0,1,6.991-10.312,25.835,25.835,0,0,0,8.707-20.8v-.27c6.212-64.126,11.3-115.986,15.889-163.111,1.319-13.315,7.658-20.337,18.335-20.337a26.756,26.756,0,0,1,3.178.191A17.763,17.763,0,0,1,241.193,66c2.034,21,4.036,42.327,5.974,62.95v.318q2,21.227,4,42.47,1.319,13.918,2.685,27.821v.143c1.335,13.775,2.733,28.011,4.02,42.057a9.215,9.215,0,0,0,3.432,6.483A53.036,53.036,0,0,1,277.991,275.4a5.37,5.37,0,0,0,6.054,4.894h.826c2.828-.143,5.736-.207,8.882-.207,2.733,0,5.577,0,8.707.159H303.9a30.029,30.029,0,0,0,26.74-15.285c5.895-9.168,11.2-17.239,16.254-24.659.747-1.1,3.5-4.894,7.944-10.947,8.421-13.648,15.523-24.691,16.842-26.709,9.327-14.3,18.86-28.711,28.075-42.692l15.618-23.706a36.973,36.973,0,0,0-11.265-57.2A324.491,324.491,0,0,0,223.541,21.084Zm-.556,233.386h-.365a35.972,35.972,0,0,0-33.175,20.957c-.985,1.859-1.223,3.082-.763,3.845s1.589,1.065,3.7,1.065h.6c3.607,0,7.531-.111,12.314-.111h47.745c1.907,0,2.955-.3,3.4-.985s.286-1.907-.6-3.956A36.544,36.544,0,0,0,222.985,254.47Zm.143-155.2h0l-.7.222-.365.111-2.892,28.6v.445q-2.844,28.091-5.656,56.2-.922,9.215-1.811,18.431v.1c-.842,8.58-1.7,17.477-2.59,26.152-.207,2.034-.207,3.352.477,4.1a2.717,2.717,0,0,0,2.129.7,11.536,11.536,0,0,0,2.066-.222,47.666,47.666,0,0,1,8.834-.89,34.1,34.1,0,0,1,6.514.588,15.46,15.46,0,0,0,2.908.334,3.75,3.75,0,0,0,2.924-.985c1.08-1.208.953-3.511.667-6.181-1.589-16.1-3.178-32.46-4.767-48.3h0q-1.208-12.838-2.447-25.692c-1.08-11.281-2.224-22.7-3.321-33.747q-1-9.946-1.97-19.908Z" transform="translate(0.012 0)" fill="#617c7e" stroke="rgba(0,0,0,0)" stroke-miterlimit="10" stroke-width="1"/>
    <path id="Path_103" data-name="Path 103" d="M62.642,88.286A10.184,10.184,0,0,1,52.235,75.178a225.624,225.624,0,0,1,9.374-25.6,9.343,9.343,0,0,1,12.838-5.2,9.9,9.9,0,0,1,6.244,13c-2.59,7.944-5.609,15.888-8.548,23.706a10.709,10.709,0,0,1-9.533,7.2" transform="translate(255.511 28.479)" fill="#617c7e"/>
    <path id="Path_104" data-name="Path 104" d="M38.679,54.4c.175-7.261,3.289-11.122,9.088-11.964a9.311,9.311,0,0,1,11.217,7.277A253.7,253.7,0,0,1,63.91,77.228a9.374,9.374,0,0,1-8.167,10.645,9.724,9.724,0,0,1-12.028-7.2c-2.383-8.993-3.575-18.3-5.053-26.264" transform="translate(120.906 15.593)" fill="#617c7e"/>
    <path id="Path_105" data-name="Path 105" d="M89.574,56.518A29.525,29.525,0,0,1,87.7,61.778c-3.861,6.927-7.722,13.871-11.948,20.655A10.407,10.407,0,0,1,60.8,86.881a10.582,10.582,0,0,1-3.067-15.332c3.94-7.134,8.04-14.3,12.361-21.148a9.756,9.756,0,0,1,12.234-4.147A10.884,10.884,0,0,1,89.542,56.5" transform="translate(295.199 49.394)" fill="#617c7e"/>
    <path id="Path_106" data-name="Path 106" d="M40.075,45.5A10.741,10.741,0,0,1,49.83,51.27c3.988,6.864,8.087,13.664,11.853,20.655a10.582,10.582,0,0,1-3.066,14.76A10.407,10.407,0,0,1,43.6,82.427c-4.369-6.88-8.469-13.982-12.2-21.227a10.328,10.328,0,0,1,8.675-15.7" transform="translate(31.027 49.447)" fill="#617c7e"/>
    <path id="Path_107" data-name="Path 107" d="M47.683,74.847c1.335-7.2,2.606-16.222,4.767-25.04a9.406,9.406,0,0,1,11.837-7.245A9.644,9.644,0,0,1,72.66,53.683,261.177,261.177,0,0,1,67.989,79.82a10.407,10.407,0,0,1-12.123,8.087c-5.752-1.462-8.516-5.37-8.183-13.124" transform="translate(213.064 15.559)" fill="#617c7e"/>
    <path id="Path_108" data-name="Path 108" d="M53.288,88.287a10.915,10.915,0,0,1-10.057-7.579C40.4,73.3,37.542,65.884,35.08,58.369a10.423,10.423,0,0,1,6.355-14.3A10.105,10.105,0,0,1,54.7,51.092c3.1,7.8,6.022,15.682,8.516,23.69a10.248,10.248,0,0,1-9.994,13.394" transform="translate(74.378 28.494)" fill="#617c7e"/>
  </g>
</svg>
