<svg id="Available_Staff" data-name="Available Staff" xmlns="http://www.w3.org/2000/svg" width="275.648" height="261.926" viewBox="0 0 275.648 261.926">
  <path id="Path_64" data-name="Path 64" d="M0,115.279c.4-1.534.794-3.073,1.215-4.6A32.128,32.128,0,0,1,31.1,87.318c4.8-.116,9.611,0,14.266,0a56.252,56.252,0,0,1-6.291-11.5,22.556,22.556,0,0,0-8.338-11.682A35.08,35.08,0,0,1,18.36,36.3c-.1-8.788-.063-17.581,0-26.369a9.195,9.195,0,0,1,9.911-9.9q27.042-.063,54.074,0a36.057,36.057,0,0,1,29.52,14.518c2.163,2.758,2.071,5.294-.165,7.1s-4.81,1.326-6.964-1.408A28.179,28.179,0,0,0,81.111,9.169c-16.855.1-33.715,0-50.575,0H28.01c-.227.334-.416.484-.411.624.106,10.395-.082,20.809.484,31.175A23.63,23.63,0,0,0,36.5,56.85c.092-1.181.2-1.936.2-2.676,0-5.473-.039-10.942,0-16.415.048-3.8,1.665-5.56,5.323-5.6q11.029-.131,22.057,0a4.641,4.641,0,0,1,5.2,4.6c-.044,2.647-2.032,4.467-5.323,4.534-4.926.1-9.862.029-14.794.034H46.457c-.276.387-.484.532-.484.673.087,8.711-.3,17.421.421,26.055a21.883,21.883,0,0,0,18.23,18.694c4.433.75,6.407,2.42,6.218,5.323-.194,3.058-2.313,4.355-7.08,4.355-10.312,0-20.625-.058-30.938,0A22.691,22.691,0,0,0,10.046,113.7a30.033,30.033,0,0,0-.852,7.743q-.087,43.181-.039,86.366v1.887c.111,2.594-.373,4.873-3.189,5.846S1.481,214.746,0,212.713V115.279" transform="translate(0 0.19)" fill="#617c7e"/>
  <path id="Path_65" data-name="Path 65" d="M60.472,106.906a8.334,8.334,0,0,1-1.582-.915A42.218,42.218,0,0,1,47.072,87.065,5.986,5.986,0,0,0,44.851,84,36.682,36.682,0,0,1,27.115,51.545c-.1-11.392-.029-22.788,0-34.18A9.379,9.379,0,0,1,37.674,6.719q35.515-.048,71.036,0a45.233,45.233,0,0,1,7.743.653A36.357,36.357,0,0,1,146.374,40.84a57.418,57.418,0,0,1-2.3,24.714A35.811,35.811,0,0,1,129.8,83.223a7.607,7.607,0,0,0-3.639,4.621,40.824,40.824,0,0,1-13.139,19.71c1.423.058,2.333.106,3.242.14a126.572,126.572,0,0,1,18.225.818,31.484,31.484,0,0,1,25.774,32.215c.15,29.873.053,59.746.034,89.618a9.412,9.412,0,0,1-.3,2.662,4.167,4.167,0,0,1-4.384,3.233,4.065,4.065,0,0,1-4.167-3.17,15.97,15.97,0,0,1-.334-4v-87.2a23.359,23.359,0,0,0-24.259-24.975q-40.093-.044-80.182,0a22.783,22.783,0,0,0-23.451,17.847,31.533,31.533,0,0,0-.673,7.467q-.063,43.466-.039,86.928a16.622,16.622,0,0,1-.3,3.741,4.442,4.442,0,0,1-8.6.044,12.834,12.834,0,0,1-.3-3.2V141.449A31.9,31.9,0,0,1,38.932,108.5a79.728,79.728,0,0,1,12.848-.8c2.729-.106,5.468,0,8.227,0l.484-.813M54.926,43.637a5.661,5.661,0,0,0-.276,1.249c0,10.4-.039,20.809.024,31.2a27.955,27.955,0,0,0,.619,5.6,32.08,32.08,0,0,0,41.773,24.443,31.116,31.116,0,0,0,21.453-26.684c.532-11.542.344-23.112.484-34.673a6.576,6.576,0,0,0-.208-1.142Zm-9.49,29.35V40.753c0-4.931,1.491-6.431,6.4-6.431h69.942c4.912,0,6.407,1.5,6.407,6.427V72.339l.8.344a66.506,66.506,0,0,0,5.081-7.312,41.86,41.86,0,0,0,2.381-28.126,26.989,26.989,0,0,0-27.9-21.322q-34.7-.063-69.4,0c-.871,0-1.742.082-2.516.121-.169.348-.31.484-.31.663,0,12.645-.213,25.295.131,37.93a25.609,25.609,0,0,0,8.977,18.351" transform="translate(50.962 25.622)" fill="#617c7e"/>
  <path id="Path_66" data-name="Path 66" d="M90.181,96.64c-4.263,0-8.028.039-11.793,0a4.621,4.621,0,1,1-.813-9.195A22.745,22.745,0,0,0,95.964,73.9a21.826,21.826,0,0,0,1.892-8.019c.247-7.956.087-15.926.087-24.2-.968-.058-1.892-.165-2.836-.165-8.227,0-16.5,0-24.753-.024a12.2,12.2,0,0,1-3.717-.411A4.089,4.089,0,0,1,63.7,36.759a4.109,4.109,0,0,1,3.2-4.157,11.749,11.749,0,0,1,3.2-.29q15.336-.029,30.676,0c5.1,0,6.591,1.486,6.572,6.562-.044,9.5.1,19.023-.286,28.513a29.3,29.3,0,0,1-8.043,18.646c-.281.31-.523.663-1.026,1.311H116.4c.044-.692.135-1.476.135-2.255,0-12.737.068-25.474,0-38.23A35.811,35.811,0,0,0,87.868,10.453C74.652,7.839,61.184,7.685,49.386,16.192a59.928,59.928,0,0,0-6.572,5.933c-2.516,2.458-4.984,2.85-7.075.939a4.713,4.713,0,0,1,.29-7.119A45.388,45.388,0,0,1,70.389.193,67.861,67.861,0,0,1,94.334,2.507,46.07,46.07,0,0,1,125.7,46.863q.1,20.717-.029,41.444a3.354,3.354,0,0,0,1.936,3.387,31.484,31.484,0,0,1,16.453,28.068c.15,5.468.029,10.942.029,16.415v73.2c0,4.355-1.568,6.63-4.559,6.649s-4.6-2.265-4.6-6.6V120.623a21.951,21.951,0,0,0-14.034-22.115,64.183,64.183,0,0,0-13.429-1.936,8.314,8.314,0,0,0-9.848,5.623c-4.839,9.7-10.375,19.033-15.636,28.513A16.646,16.646,0,0,1,80.585,133,4.22,4.22,0,0,1,75.1,134.42a4.292,4.292,0,0,1-2.473-5.352,11.178,11.178,0,0,1,1.229-2.671q7.491-13.516,15-27.022c.421-.76.789-1.553,1.374-2.72" transform="translate(131.516 0.034)" fill="#617c7e"/>
  <path id="Path_67" data-name="Path 67" d="M25.218,105.416q1.752-18.481,3.5-36.958c.4-4.2.886-8.386,1.181-12.582a11.987,11.987,0,0,0-.561-3.683c-1.224-4.863-2.536-9.7-3.76-14.566a4.592,4.592,0,1,1,8.812-2.26c1.06,4.075,2.124,8.154,2.957,12.277.368,1.824,1.186,2.323,2.9,2.221,2.85-.169,6.5.861,8.343-.542s1.805-5.159,2.555-7.893c.542-1.989.968-4.007,1.529-5.986a4.68,4.68,0,1,1,9.049,2.192,59.725,59.725,0,0,1-2.178,8.309,42.745,42.745,0,0,0-1.355,19.875c1.311,12.935,2.357,25.9,3.586,38.84a7.065,7.065,0,0,1-2.72,6.6C55.072,114.6,51.224,118.11,47.28,121.5a4.805,4.805,0,0,1-7.593-.034c-4.08-3.508-8.227-6.964-12.1-10.68a22.261,22.261,0,0,1-3.034-4.965l.663-.4M48.263,59.056c-2.991,0-5.759-.106-8.5.087-.571.039-1.452,1.157-1.539,1.839Q36.247,81.97,34.5,102.973a3.823,3.823,0,0,0,.915,2.783c2.55,2.362,5.285,4.515,8.091,6.867,2.836-2.381,5.618-4.612,8.261-7a3.141,3.141,0,0,0,.76-2.328c-1.365-14.61-2.8-29.21-4.268-44.236" transform="translate(94.273 120.306)" fill="#617c7e"/>
  <path id="Path_68" data-name="Path 68" d="M14.877,68.872v34.436a16.183,16.183,0,0,1-.169,3.218,4.21,4.21,0,0,1-4.162,3.552,4.07,4.07,0,0,1-4.355-2.9,11.058,11.058,0,0,1-.484-3.436q-.044-34.973,0-69.952a11.353,11.353,0,0,1,.256-2.657,4.471,4.471,0,0,1,8.846.6c.106,1.157.073,2.333.073,3.494V68.853" transform="translate(21.824 105.898)" fill="#617c7e"/>
  <path id="Path_69" data-name="Path 69" d="M49.369,68.768V34.331a19.314,19.314,0,0,1,.116-2.952,4.205,4.205,0,0,1,4.21-3.8,4.079,4.079,0,0,1,4.462,3.112,11.7,11.7,0,0,1,.382,3.179q.029,34.973,0,69.952a11.392,11.392,0,0,1-.256,2.662,4.471,4.471,0,0,1-8.846-.586c-.1-.968-.073-1.97-.073-2.957V68.768" transform="translate(189.488 105.92)" fill="#617c7e"/>
  <path id="Path_70" data-name="Path 70" d="M19.006,78.051V43.62a13.366,13.366,0,0,1,.208-3.208,4.138,4.138,0,0,1,4.036-3.334,4.084,4.084,0,0,1,4.428,2.778,10.961,10.961,0,0,1,.484,3.7q.039,34.7,0,69.4a13.24,13.24,0,0,1-.319,3.189,4.094,4.094,0,0,1-4.53,3.387,4.157,4.157,0,0,1-4.186-3.8A18.711,18.711,0,0,1,19,112.773v-34.7" transform="translate(72.887 142.372)" fill="#617c7e"/>
  <path id="Path_71" data-name="Path 71" d="M45.237,78.228v34.431a17.327,17.327,0,0,1-.165,3.213,4.452,4.452,0,0,1-8.595.6,10.4,10.4,0,0,1-.4-3.175q-.039-34.969,0-69.937a12.582,12.582,0,0,1,.247-2.662,4.2,4.2,0,0,1,4.592-3.629,4.268,4.268,0,0,1,4.239,4.046,22.567,22.567,0,0,1,.092,2.686q0,17.218,0,34.431" transform="translate(138.433 142.38)" fill="#617c7e"/>
  <path id="Path_72" data-name="Path 72" d="M20.908,31.022c.929,3.688,1.781,7.051,2.628,10.419a23.358,23.358,0,0,1,.557,2.352,4.592,4.592,0,0,1-3.218,5.454,4.355,4.355,0,0,1-5.536-3.005c-1.757-6.291-3.387-12.626-4.772-19a4.355,4.355,0,0,1,4.607-5.323c6.809-.136,13.627-.116,20.436,0a4.559,4.559,0,1,1-.15,9.093c-4.733.073-9.47,0-14.552,0" transform="translate(40.135 83.939)" fill="#617c7e"/>
</svg>
