<svg xmlns="http://www.w3.org/2000/svg" width="225.412" height="249.124" viewBox="0 0 225.412 249.124">
  <g id="Group_100" data-name="Group 100" transform="translate(6 6)">
    <g id="Icon_feather-calendar" data-name="Icon feather-calendar" transform="translate(0 0)">
      <path id="Path_116" data-name="Path 116" d="M28.21,6H194.2a23.71,23.71,0,0,1,23.71,23.71V195.7a23.71,23.71,0,0,1-23.71,23.71H28.21A23.71,23.71,0,0,1,4.5,195.7V29.71A23.71,23.71,0,0,1,28.21,6Z" transform="translate(-4.5 17.71)" fill="none" stroke="#617c7e" stroke-linecap="round" stroke-linejoin="round" stroke-width="12"/>
      <path id="Path_117" data-name="Path 117" d="M24,3V50.426" transform="translate(130.131 -3)" fill="none" stroke="#617c7e" stroke-linecap="round" stroke-linejoin="round" stroke-width="12"/>
      <path id="Path_118" data-name="Path 118" d="M12,3V50.426" transform="translate(47.281 -3)" fill="none" stroke="#617c7e" stroke-linecap="round" stroke-linejoin="round" stroke-width="12"/>
      <path id="Path_119" data-name="Path 119" d="M4.5,15H217.912" transform="translate(-4.5 79.851)" fill="none" stroke="#617c7e" stroke-linecap="round" stroke-linejoin="round" stroke-width="12"/>
    </g>
    <text id="_2023" data-name="2023" transform="translate(27.993 186.227)" fill="#617c7e" font-size="65" font-family="Montserrat-SemiBold, Montserrat" font-weight="600"><tspan x="0" y="0">2023</tspan></text>
  </g>
</svg>
